<svg width="16" height="16" viewBox="0 0 16 16" fill="none" xmlns="http://www.w3.org/2000/svg">
<path d="M2.00004 8.66642L12.3907 8.66642L8.86204 12.1951C8.60171 12.4554 8.60171 12.8774 8.86204 13.1378C9.12238 13.3981 9.54454 13.3981 9.80488 13.1378L14.4715 8.47109C14.7319 8.21076 14.7319 7.78859 14.4715 7.52842L9.80488 2.86176C9.67471 2.73159 9.50404 2.66642 9.33338 2.66642C9.16288 2.66642 8.99221 2.73159 8.86204 2.86176C8.60171 3.12209 8.60171 3.54426 8.86204 3.80442L12.3907 7.33309L2.00004 7.33309C1.63204 7.33309 1.33337 7.63159 1.33337 7.99976C1.33337 8.36792 1.63187 8.66642 2.00004 8.66642Z" fill="white"/>
</svg>
